<svg width="471.641" height="471.641" xmlns="http://www.w3.org/2000/svg">

 <g>
  <title>Layer 1</title>
  <g id="svg_1">
   <g id="svg_2">
    <path fill="#884D58" id="svg_3" d="m431.666,49.412c-51.692,-50.578 -134.33,-50.567 -186.009,0.025l-216.746,216.747c-39.192,40.116 -38.443,104.407 1.673,143.599c39.456,38.548 102.47,38.548 141.926,0l196.267,-196.267c25.515,-25.515 25.515,-66.884 0,-92.399c-25.515,-25.515 -66.884,-25.515 -92.399,0l-187.734,187.733c-6.548,6.78 -6.36,17.584 0.42,24.132c6.614,6.388 17.099,6.388 23.713,0l187.733,-187.733c12.449,-11.926 32.209,-11.501 44.134,0.948c11.565,12.073 11.565,31.114 0,43.187l-196.266,196.266c-26.514,26.137 -69.197,25.831 -95.334,-0.683c-25.873,-26.246 -25.873,-68.405 0,-94.651l216.746,-216.747c38.608,-38.622 101.214,-38.633 139.836,-0.026c38.622,38.607 38.633,101.214 0.026,139.836l-216.747,216.747c-7.159,6.131 -7.993,16.905 -1.862,24.064c6.131,7.159 16.905,7.993 24.064,1.862c0.668,-0.572 1.29,-1.194 1.862,-1.862l216.747,-216.747c51.357,-52.489 50.44,-136.674 -2.05,-188.031z"/>
   </g>
  </g>
  <g id="svg_4"/>
  <g id="svg_5"/>
  <g id="svg_6"/>
  <g id="svg_7"/>
  <g id="svg_8"/>
  <g id="svg_9"/>
  <g id="svg_10"/>
  <g id="svg_11"/>
  <g id="svg_12"/>
  <g id="svg_13"/>
  <g id="svg_14"/>
  <g id="svg_15"/>
  <g id="svg_16"/>
  <g id="svg_17"/>
  <g id="svg_18"/>
 </g>
</svg>