<svg xmlns="http://www.w3.org/2000/svg" width="48.138" height="48.383" viewBox="0 0 48.138 48.383"><path fill="#CACACA" d="M46.6,48.448H5.541A3.541,3.541,0,0,1,2,44.907V23.6a3.541,3.541,0,0,1,1.069-2.535l20.516-20a3.541,3.541,0,0,1,4.975.031L49.1,21.633a3.541,3.541,0,0,1,1.038,2.5v20.77A3.541,3.541,0,0,1,46.6,48.448ZM9.712,44.276H42.426a3.541,3.541,0,0,0,3.541-3.541V25.866a3.541,3.541,0,0,0-1.038-2.5L28.523,6.962a3.541,3.541,0,0,0-4.975-.031L7.241,22.828a3.541,3.541,0,0,0-1.069,2.535V40.736A3.541,3.541,0,0,0,9.712,44.276Z" transform="translate(-2 -0.065)"/></svg>