<svg xmlns="http://www.w3.org/2000/svg" width="68.713" height="68.713" viewBox="0 0 68.713 68.713">
  <g id="Grupo_93" data-name="Grupo 93" transform="translate(0 34.357) rotate(-45)">
    <g id="Trazado_2066" data-name="Trazado 2066" transform="translate(0 0)" fill="#cacaca">
      <path d="M 24.2938232421875 47.58763885498047 C 21.14873313903809 47.58763885498047 18.09825325012207 46.97188949584961 15.22712326049805 45.75751113891602 C 12.4534330368042 44.58432769775391 9.962193489074707 42.90462875366211 7.822603225708008 40.76503753662109 C 5.683013439178467 38.62545013427734 4.003313064575195 36.13420867919922 2.830133199691772 33.36051940917969 C 1.615753293037415 30.48938941955566 1.000003218650818 27.43890953063965 1.000003218650818 24.29381942749023 C 1.000003218650818 21.14873886108398 1.615753293037415 18.09825897216797 2.830133199691772 15.22711944580078 C 4.003313064575195 12.45342922210693 5.683023452758789 9.962189674377441 7.822603225708008 7.822599411010742 C 9.962193489074707 5.683019638061523 12.4534330368042 4.00330924987793 15.22712326049805 2.830129384994507 C 18.09826278686523 1.615749478340149 21.14874267578125 0.9999994039535522 24.2938232421875 0.9999994039535522 C 27.43891334533691 0.9999994039535522 30.48939323425293 1.615749478340149 33.36052322387695 2.830129384994507 C 36.13421249389648 4.00330924987793 38.62545394897461 5.683009624481201 40.76504135131836 7.822599411010742 C 42.90463256835938 9.962189674377441 44.58433151245117 12.45342922210693 45.75751495361328 15.22711944580078 C 46.97189331054688 18.0982494354248 47.58764266967773 21.14872932434082 47.58764266967773 24.29381942749023 C 47.58764266967773 27.43889999389648 46.97189331054688 30.4893798828125 45.75751495361328 33.36051940917969 C 44.58433151245117 36.13420867919922 42.90462493896484 38.62545013427734 40.76504135131836 40.76503753662109 C 38.62545394897461 42.90462112426758 36.13421249389648 44.58432769775391 33.36052322387695 45.75751113891602 C 30.48938369750977 46.97188949584961 27.43890380859375 47.58763885498047 24.2938232421875 47.58763885498047 Z" stroke="none"/>
      <path d="M 24.2938232421875 2 C 21.28329277038574 2 18.36388397216797 2.589168548583984 15.61667251586914 3.751140594482422 C 12.96218490600586 4.873897552490234 10.57778167724609 6.481639862060547 8.529712677001953 8.529708862304688 C 6.481643676757813 10.57777786254883 4.873893737792969 12.96218109130859 3.751144409179688 15.61668014526367 C 2.58917236328125 18.3638801574707 2.000003814697266 21.28328895568848 2.000003814697266 24.29381942749023 C 2.000003814697266 27.30434989929199 2.58917236328125 30.22375869750977 3.751144409179688 32.97097015380859 C 4.873893737792969 35.62545776367188 6.481643676757813 38.00985717773438 8.529712677001953 40.05792999267578 C 10.57778167724609 42.10599899291992 12.96218490600586 43.71374893188477 15.61667251586914 44.83649826049805 C 18.36388397216797 45.99847030639648 21.28329277038574 46.58763885498047 24.2938232421875 46.58763885498047 C 27.30435371398926 46.58763885498047 30.22376251220703 45.99847030639648 32.97096252441406 44.83649826049805 C 35.62546539306641 43.71373748779297 38.00986480712891 42.10599899291992 40.05793380737305 40.05792999267578 C 42.10600280761719 38.00985717773438 43.7137451171875 35.62545776367188 44.83650207519531 32.9709587097168 C 45.99847412109375 30.22375869750977 46.58764266967773 27.30434989929199 46.58764266967773 24.29381942749023 C 46.58764266967773 21.28328895568848 45.99847412109375 18.3638801574707 44.83650207519531 15.61666870117188 C 43.71375274658203 12.96218109130859 42.10600280761719 10.57777786254883 40.05793380737305 8.529708862304688 C 38.00986480712891 6.481639862060547 35.62546539306641 4.873889923095703 32.97097396850586 3.751140594482422 C 30.22376251220703 2.589168548583984 27.30435371398926 2 24.2938232421875 2 M 24.2938232421875 0 C 37.71093368530273 0 48.58764266967773 10.876708984375 48.58764266967773 24.29381942749023 C 48.58764266967773 37.71091842651367 37.71092224121094 48.58763885498047 24.2938232421875 48.58763885498047 C 10.87671279907227 48.58763885498047 3.814697265625e-06 37.71092987060547 3.814697265625e-06 24.29381942749023 C 3.814697265625e-06 10.8767204284668 10.87671279907227 0 24.2938232421875 0 Z" stroke="none" fill="#8e8e8e"/>
    </g>
    <g id="Grupo_91" data-name="Grupo 91" transform="translate(15.667 16.189) rotate(45)">
      <line id="Línea_28" data-name="Línea 28" x2="24.157" transform="translate(0 0)" fill="none" stroke="#8e8e8e" stroke-linecap="round" stroke-width="2"/>
    </g>
  </g>
</svg>
