<svg xmlns="http://www.w3.org/2000/svg" width="35.071" height="44.705" viewBox="0 0 35.071 44.705">
  <g id="Grupo_5" data-name="Grupo 5" transform="translate(-1584.87 -483.751)">
    <g id="Grupo_4" data-name="Grupo 4" transform="translate(1585.37 484.251)">
      <g id="Grupo_3" data-name="Grupo 3" transform="translate(0)">
        <g id="Grupo_1" data-name="Grupo 1">
          <path id="Trazado_1" data-name="Trazado 1" d="M1601.8,484.852v12.761h-15.833V484.852H1601.8m.6-.6H1585.37v13.963h17.035V484.251Z" transform="translate(-1585.37 -484.251)" fill="#707070" stroke="rgba(0,0,0,0)" stroke-width="1"/>
        </g>
        <g id="Grupo_2" data-name="Grupo 2" transform="translate(0 13.362)">
          <path id="Trazado_2" data-name="Trazado 2" d="M1590.461,598.279l11.344,16.652v10.012l-15.833-23.3v-3.367h4.49m.318-.6h-5.409v4.152l17.035,25.065v-12.15l-11.626-17.068Z" transform="translate(-1585.37 -597.678)" fill="#707070" stroke="rgba(0,0,0,0)" stroke-width="1"/>
        </g>
        <path id="Trazado_3" data-name="Trazado 3" d="M1618.84,484.852V509.8a16.355,16.355,0,0,1-2.806,9.188,16.486,16.486,0,0,1-7.231,5.955,16.411,16.411,0,0,1-15.585-1.515,16.48,16.48,0,0,1-5.955-7.231,16.327,16.327,0,0,1-1.291-6.4V484.852h32.869m.6-.6H1585.37V509.8a17.035,17.035,0,0,0,34.071,0V484.251Z" transform="translate(-1585.37 -484.251)" fill="#707070" stroke="rgba(0,0,0,0)" stroke-width="1"/>
      </g>
      <path id="Trazado_4" data-name="Trazado 4" d="M1752.923,519.73a.441.441,0,0,1,.49.089.978.978,0,0,0-.714-.868.571.571,0,0,1,.181-.041.794.794,0,0,0-.5-.325.231.231,0,0,1,.182-.061.722.722,0,0,0-.7-.211.3.3,0,0,1,.248-.141,1.37,1.37,0,0,0-1.627.368,10.942,10.942,0,0,0,.349-1.346l.2.034a.246.246,0,1,0,.036-.2l-.2-.034q.049-.287.083-.578c.6-.056,1-.73,1.087-1.116a.294.294,0,0,1-.257.121.722.722,0,0,0,.23-.7.23.23,0,0,1-.154.114.8.8,0,0,0,.019-.6.339.339,0,0,1-.186.109.592.592,0,0,0-.059-.479.441.441,0,0,1,.116-.485.978.978,0,0,0-.906.665.577.577,0,0,1-.031-.183.793.793,0,0,0-.352.479.231.231,0,0,1-.051-.185.722.722,0,0,0-.25.689.3.3,0,0,1-.127-.255c-.209.432-.321,1.451.492,1.754q-.033.284-.081.565l-.178-.034a.247.247,0,1,0-.04.2l.18.035a10.473,10.473,0,0,1-.343,1.314c.094-.714-.667-1.192-1.1-1.294a.3.3,0,0,1,.118.26.723.723,0,0,0-.692-.242.231.231,0,0,1,.112.156.794.794,0,0,0-.594-.03.568.568,0,0,1,.122.139.978.978,0,0,0-1.088.281.441.441,0,0,1,.449.217.592.592,0,0,0,.334.348.339.339,0,0,1-.2.075.8.8,0,0,0,.474.362.229.229,0,0,1-.186.047.722.722,0,0,0,.684.263.294.294,0,0,1-.256.123c.394.195,1.3.321,1.678-.3a10.443,10.443,0,0,1-.941,1.892,3.629,3.629,0,0,1-.527.636l-.146-.175a.247.247,0,1,0-.16.133l.152.182a3.625,3.625,0,0,1-1.715.816h0a1.169,1.169,0,0,1-1.24,0h0a3.624,3.624,0,0,1-1.715-.816l.152-.182a.246.246,0,1,0-.16-.133l-.146.175a3.635,3.635,0,0,1-.527-.635h0a10.435,10.435,0,0,1-.942-1.893c.378.622,1.285.5,1.679.3a.3.3,0,0,1-.256-.123.722.722,0,0,0,.684-.263.229.229,0,0,1-.185-.047.8.8,0,0,0,.474-.362.339.339,0,0,1-.2-.075.592.592,0,0,0,.334-.348.441.441,0,0,1,.449-.217.978.978,0,0,0-1.088-.281.567.567,0,0,1,.123-.139.794.794,0,0,0-.594.03.232.232,0,0,1,.112-.156.723.723,0,0,0-.692.242.3.3,0,0,1,.118-.26c-.428.1-1.19.58-1.1,1.295a10.43,10.43,0,0,1-.343-1.315l.18-.035a.247.247,0,1,0-.04-.2l-.178.034q-.048-.281-.081-.565c.813-.3.7-1.323.492-1.754a.3.3,0,0,1-.127.255.722.722,0,0,0-.25-.689.231.231,0,0,1-.051.185.793.793,0,0,0-.352-.479.571.571,0,0,1-.03.183.978.978,0,0,0-.906-.665.441.441,0,0,1,.116.485.591.591,0,0,0-.058.479.339.339,0,0,1-.186-.109.8.8,0,0,0,.019.6.229.229,0,0,1-.154-.114.722.722,0,0,0,.229.7.3.3,0,0,1-.257-.121c.089.386.483,1.059,1.087,1.116q.034.29.083.578l-.2.034a.247.247,0,1,0,.036.2l.2-.034a10.9,10.9,0,0,0,.348,1.346,1.37,1.37,0,0,0-1.627-.368.3.3,0,0,1,.248.141.722.722,0,0,0-.7.211.231.231,0,0,1,.182.061.794.794,0,0,0-.5.325.57.57,0,0,1,.181.041.978.978,0,0,0-.714.868.441.441,0,0,1,.49-.089.593.593,0,0,0,.475.085.34.34,0,0,1-.12.179.8.8,0,0,0,.6.013.23.23,0,0,1-.122.147.722.722,0,0,0,.708-.191.294.294,0,0,1-.135.25c.443-.076,1.277-.526,1.175-1.28a10.867,10.867,0,0,0,1,2.025l0,0a4.07,4.07,0,0,0,2.68,1.782h0c.054.01.107.021.16.034a3.164,3.164,0,0,0-.463.368,3.947,3.947,0,0,0-2.379-.151l-.052-.2a.246.246,0,1,0-.2.053l.053.2a3.923,3.923,0,0,0-1.157.578c.018-.021.035-.044.052-.068.511-.727-.185-1.5-.61-1.733a.3.3,0,0,1,.046.281.722.722,0,0,0-.6-.414.232.232,0,0,1,.067.18.794.794,0,0,0-.566-.184.565.565,0,0,1,.082.166.978.978,0,0,0-1.124-.012.441.441,0,0,1,.377.326.593.593,0,0,0,.232.423.339.339,0,0,1-.215.019.8.8,0,0,0,.363.473.229.229,0,0,1-.191,0,.722.722,0,0,0,.592.432.3.3,0,0,1-.28.052,1.492,1.492,0,0,0,1.483.3,3.927,3.927,0,0,0-.864,1.094l-.172-.076a.246.246,0,1,0-.084.19l.163.072a3.862,3.862,0,0,0-.23.632h-.028c-.887.044-1.072,1.068-.993,1.546a.3.3,0,0,1,.194-.209.722.722,0,0,0,.044.732.232.232,0,0,1,.1-.163.794.794,0,0,0,.2.56.57.57,0,0,1,.081-.167.978.978,0,0,0,.68.894.441.441,0,0,1,.026-.5.592.592,0,0,0,.192-.443.339.339,0,0,1,.147.157.8.8,0,0,0,.15-.577.229.229,0,0,1,.115.153.722.722,0,0,0-.023-.733.3.3,0,0,1,.212.189,1.488,1.488,0,0,0-.678-1.356,3.449,3.449,0,0,1,.2-.54l.188.084a.246.246,0,1,0,.085-.19l-.179-.08a3.5,3.5,0,0,1,1.109-1.224c-.506.546-.109,1.389.2,1.711a.294.294,0,0,1,.04-.281.722.722,0,0,0,.455.575.229.229,0,0,1-.01-.191.8.8,0,0,0,.487.344.34.34,0,0,1,.011-.215.592.592,0,0,0,.432.215.442.442,0,0,1,.341.363.978.978,0,0,0-.057-1.122.573.573,0,0,1,.17.075.794.794,0,0,0-.207-.558.232.232,0,0,1,.182.06.722.722,0,0,0-.438-.588.3.3,0,0,1,.283.034,1.476,1.476,0,0,0-1.329-.731,3.511,3.511,0,0,1,2.529-.112,2.571,2.571,0,0,0,.1,3.2,1.207,1.207,0,0,0,.1.116.775.775,0,0,1,.182.489l-.145,11.93h0a1.272,1.272,0,0,1-.3.859,8.186,8.186,0,0,1-3.062,1.659,2.492,2.492,0,0,0-1.823,1.612,2.633,2.633,0,0,1,1.749-.8,1.444,1.444,0,0,0,1.02-.4c-.078.324-.937.882-1.5,1.078a2.045,2.045,0,0,0-1.43,1.667,1.98,1.98,0,0,1,.867-.915,3.121,3.121,0,0,0,.4,2.357,2.845,2.845,0,0,1,.1-1.641c.151-.32.38-.563.286-.955.494-.227.722-.345.771-.377a2.963,2.963,0,0,0,.747,2.251s-.644-2.356.71-3.026a3.1,3.1,0,0,0,1.322-1.038,5.389,5.389,0,0,0,.086.649c.057.243.022.41-.192.913a2.607,2.607,0,0,0,.135,1.947,1.054,1.054,0,0,1,0,.953,2.005,2.005,0,0,0,.384-1.391,2.089,2.089,0,0,1,.463-1.356,1.391,1.391,0,0,0,.207-1.119c-.044-.357.034-.639.347-.639.166,0,.391.109.242.736a1.473,1.473,0,0,0,.275,1.087,2.4,2.4,0,0,1,.461,1.892c-.025.152-.029.183-.029.183a3,3,0,0,0,.445-1.961,1.334,1.334,0,0,0-.317-.822.571.571,0,0,1-.092-.579.415.415,0,0,1,.707-.1.593.593,0,0,1,.114.537,1.018,1.018,0,0,0,.2.777.785.785,0,0,1,.122.736,2.41,2.41,0,0,1-.049.246,1.907,1.907,0,0,0,.362-1.517,1.324,1.324,0,0,1,0-.684.372.372,0,0,1,.487-.219,2.848,2.848,0,0,0,1.379.2,1.024,1.024,0,0,0,.83-.979,1.452,1.452,0,0,1-1.268.049,2.783,2.783,0,0,0-1.036-.195,2.4,2.4,0,0,1-1.616-.744,1.56,1.56,0,0,1-.359-1.06c0-.014,0-.027,0-.041l-.143-11.766a.775.775,0,0,1,.183-.489,1.2,1.2,0,0,0,.1-.116,2.571,2.571,0,0,0,.1-3.2,3.511,3.511,0,0,1,2.529.112,1.476,1.476,0,0,0-1.329.731.3.3,0,0,1,.283-.034.722.722,0,0,0-.438.588.232.232,0,0,1,.182-.06.794.794,0,0,0-.206.558.573.573,0,0,1,.17-.075.978.978,0,0,0-.057,1.122.442.442,0,0,1,.341-.363.593.593,0,0,0,.432-.215.338.338,0,0,1,.011.215.8.8,0,0,0,.487-.344.229.229,0,0,1-.01.191.722.722,0,0,0,.455-.575.3.3,0,0,1,.04.281c.307-.321.7-1.165.2-1.711a3.5,3.5,0,0,1,1.109,1.224l-.179.08a.247.247,0,1,0,.085.19l.188-.084a3.439,3.439,0,0,1,.2.54,1.489,1.489,0,0,0-.678,1.356.3.3,0,0,1,.212-.189.722.722,0,0,0-.023.733.229.229,0,0,1,.115-.153.8.8,0,0,0,.15.577.339.339,0,0,1,.147-.157.593.593,0,0,0,.192.443.441.441,0,0,1,.026.5.978.978,0,0,0,.68-.894.57.57,0,0,1,.081.167.793.793,0,0,0,.2-.56.231.231,0,0,1,.1.163.722.722,0,0,0,.044-.732.3.3,0,0,1,.194.209c.079-.478-.105-1.5-.993-1.546h-.028a3.862,3.862,0,0,0-.23-.632l.163-.072a.247.247,0,1,0-.084-.19l-.172.076a3.931,3.931,0,0,0-.864-1.094,1.491,1.491,0,0,0,1.483-.3.294.294,0,0,1-.279-.052.722.722,0,0,0,.592-.432.229.229,0,0,1-.191,0,.8.8,0,0,0,.363-.473.339.339,0,0,1-.215-.019.592.592,0,0,0,.232-.423.441.441,0,0,1,.377-.326.978.978,0,0,0-1.124.012.572.572,0,0,1,.082-.166.794.794,0,0,0-.566.184.231.231,0,0,1,.067-.18.723.723,0,0,0-.6.414.3.3,0,0,1,.046-.281c-.425.231-1.12,1.006-.61,1.733.017.024.034.046.052.068a3.919,3.919,0,0,0-1.157-.578l.053-.2a.247.247,0,1,0-.2-.053l-.052.2a3.946,3.946,0,0,0-2.379.151,3.156,3.156,0,0,0-.462-.368c.053-.013.106-.024.16-.034h0a4.071,4.071,0,0,0,2.681-1.782l0,0a10.87,10.87,0,0,0,1-2.024c-.1.755.732,1.2,1.175,1.28a.3.3,0,0,1-.135-.25.722.722,0,0,0,.708.191.229.229,0,0,1-.122-.147.8.8,0,0,0,.6-.013.34.34,0,0,1-.12-.179A.592.592,0,0,0,1752.923,519.73Zm-8.273,5.868a2.139,2.139,0,0,1,.416-1.934,3.484,3.484,0,0,1,.565.344A3.9,3.9,0,0,0,1744.65,525.6Zm1.31.466a.683.683,0,0,1-.686-.681.676.676,0,0,1,.085-.328.617.617,0,1,1,1.2,0,.675.675,0,0,1,.088.333A.684.684,0,0,1,1745.96,526.063Zm1.387-1.034a2.144,2.144,0,0,1-.077.568,3.9,3.9,0,0,0-.98-1.59,3.489,3.489,0,0,1,.565-.344A2.133,2.133,0,0,1,1747.348,525.029Zm-.813-1.686a.628.628,0,0,1-1.149,0,.629.629,0,0,1,1.149,0Z" transform="translate(-1720.467 -509.952)" fill="#707070" stroke="rgba(0,0,0,0)" stroke-width="1"/>
    </g>
  </g>
</svg>
