<svg xmlns="http://www.w3.org/2000/svg" width="48.138" height="48.621" viewBox="0 0 48.138 48.621">
  <path fill="#CACACA" id="Trazado_9" data-name="Trazado 9" d="M35.53,50.621l-.116,0A3.888,3.888,0,0,1,32.7,49.408l-7.484-7.835H7.538A5.428,5.428,0,0,1,2,36.275V7.3A5.428,5.428,0,0,1,7.538,2H44.6a5.428,5.428,0,0,1,5.538,5.3V36.275c0,2.341-.824,3.053-2.816,4.766l-9.129,8.525A3.882,3.882,0,0,1,35.53,50.621ZM7.538,6.171A1.266,1.266,0,0,0,6.171,7.3V36.275A1.266,1.266,0,0,0,7.538,37.4H27l8.536,8.936,9-8.4.058-.05a16.623,16.623,0,0,0,1.359-1.235c.006-.057.012-.168.012-.374V7.3A1.266,1.266,0,0,0,44.6,6.171Z" transform="translate(-2 -2)"/>
</svg>
