<svg xmlns="http://www.w3.org/2000/svg" width="48.138" height="48.2" viewBox="0 0 48.138 48.2">
  <path fill="#CACACA" id="Trazado_5" data-name="Trazado 5" d="M48.28,38.3a3.846,3.846,0,0,0-3.564-2.027h-17.9v-5.3h14.7a5.7,5.7,0,0,0,5.691-5.691V5.691A5.7,5.7,0,0,0,41.519,0H7.45A5.7,5.7,0,0,0,1.758,5.691V25.283A5.7,5.7,0,0,0,7.45,30.974H22.3v5.3H11a4.111,4.111,0,0,0-2.619.9L1.5,42.848a2.764,2.764,0,0,0-.876,3.325A3.846,3.846,0,0,0,4.186,48.2H37.9a4.111,4.111,0,0,0,2.619-.9L47.4,41.626A2.764,2.764,0,0,0,48.28,38.3ZM6.146,25.283V5.691a1.305,1.305,0,0,1,1.3-1.3H41.519a1.306,1.306,0,0,1,1.3,1.3V25.283a1.305,1.305,0,0,1-1.3,1.3H7.45A1.305,1.305,0,0,1,6.146,25.283ZM44.59,39.471,37.872,45.01H4.317c-.005,0-.008-.005,0-.008l6.717-5.539H44.585C44.591,39.463,44.593,39.468,44.59,39.471Z" transform="translate(-0.382)"/>
</svg>
