<svg width="512" height="512" xmlns="http://www.w3.org/2000/svg">

 <g>
  <title>Layer 1</title>
  <path fill="#ffffff" id="svg_1" d="m256,0c-141.16406,0 -256,114.83594 -256,256s114.83594,256 256,256s256,-114.83594 256,-256s-114.83594,-256 -256,-256zm112,277.33203l-90.66797,0l0,90.66797c0,11.77734 -9.55469,21.33203 -21.33203,21.33203s-21.33203,-9.55469 -21.33203,-21.33203l0,-90.66797l-90.66797,0c-11.77734,0 -21.33203,-9.55469 -21.33203,-21.33203s9.55469,-21.33203 21.33203,-21.33203l90.66797,0l0,-90.66797c0,-11.77734 9.55469,-21.33203 21.33203,-21.33203s21.33203,9.55469 21.33203,21.33203l0,90.66797l90.66797,0c11.77734,0 21.33203,9.55469 21.33203,21.33203s-9.55469,21.33203 -21.33203,21.33203zm0,0"/>
 </g>
</svg>