<svg id="basura" xmlns="http://www.w3.org/2000/svg" width="19.958" height="25.654" viewBox="0 0 19.958 25.654">
  <path id="Trazado_133" data-name="Trazado 133" d="M127.013,1.549H131.3V2.27h1.548V1.448A1.449,1.449,0,0,0,131.4,0h-4.491a1.449,1.449,0,0,0-1.447,1.448V2.27h1.549Zm0,0" transform="translate(-119.178)" fill="#9c9c9c"/>
  <path id="Trazado_134" data-name="Trazado 134" d="M55.708,167.75H41.172a.682.682,0,0,0-.68.737l1.215,15.027A1.614,1.614,0,0,0,43.316,185H53.564a1.614,1.614,0,0,0,1.608-1.485l1.215-15.027A.682.682,0,0,0,55.708,167.75ZM44.692,183.4l-.049,0a.774.774,0,0,1-.772-.727l-.762-12.336a.774.774,0,1,1,1.546-.1l.761,12.336A.774.774,0,0,1,44.692,183.4Zm4.531-.773a.774.774,0,0,1-1.549,0V170.287a.774.774,0,0,1,1.549,0Zm4.547-12.291-.727,12.336a.774.774,0,0,1-.772.729h-.046a.774.774,0,0,1-.727-.819l.727-12.336a.774.774,0,0,1,1.546.091Zm0,0" transform="translate(-38.461 -159.345)" fill="#9c9c9c"/>
  <path id="Trazado_135" data-name="Trazado 135" d="M19.925,78.408l-.508-1.524a.985.985,0,0,0-.934-.673H1.476a.984.984,0,0,0-.934.673L.034,78.408a.64.64,0,0,0,.606.841H19.319a.63.63,0,0,0,.338-.1A.638.638,0,0,0,19.925,78.408Zm0,0" transform="translate(-0.001 -72.392)" fill="#9c9c9c"/>
</svg>
