<svg width="512" height="512" xmlns="http://www.w3.org/2000/svg">

 <g>
  <title>background</title>
  <rect fill="none" id="canvas_background" height="602" width="802" y="-1" x="-1"/>
 </g>
 <g>
  <title>Layer 1</title>
  <circle id="svg_1" fill="#DDDDDD" r="256" cy="256" cx="256"/>
  <path id="svg_2" fill="#BBBBBB" d="m356.705,119.811l-31.461,39.65l-87.921,188.282l-123.545,121.135l0,0c40.68,27.233 89.593,43.122 142.222,43.122c135.184,0 245.881,-104.784 255.333,-237.561l-154.628,-154.628z"/>
  <rect id="svg_3" fill="#FCD088" height="85.333" width="85.333" y="292.219" x="213.333"/>
  <rect id="svg_4" fill="#DDAB62" height="85.333" width="43.236" y="292.219" x="255.431"/>
  <path id="svg_5" fill="#D9EDEC" d="m199.456,351.454l-45.22,9.044c-23.024,4.606 -39.596,24.821 -39.596,48.3l0,59.809c40.432,27.067 89.05,42.861 141.36,42.861s100.928,-15.794 141.36,-42.861l0,-59.809c0,-23.48 -16.572,-43.696 -39.596,-48.3l-45.22,-9.044l-7.992,-11.666c-1.496,-2.184 -4.327,-3.007 -6.759,-1.965l-41.793,18.007l-41.543,-17.987c-2.415,-1.053 -5.239,-0.262 -6.754,1.893l-8.247,11.718z"/>
  <path id="svg_6" fill="#A9BFBE" d="m357.764,360.5l-45.22,-9.044l-7.992,-11.666c-1.496,-2.184 -4.327,-3.007 -6.759,-1.965l-41.793,18.005l-0.574,-0.248l0,155.877c0.191,0 0.381,0.01 0.574,0.01c52.31,0 100.928,-15.794 141.36,-42.861l0,-59.809c0,-23.48 -16.572,-43.695 -39.596,-48.299z"/>
  <path id="svg_7" fill="#FFEDB5" d="m347.531,205.44c0.459,-4.244 0.698,-8.428 0.698,-12.509c0,-53.974 -41.293,-97.728 -92.229,-97.728s-92.229,43.753 -92.229,97.728c0,4.08 0.24,8.264 0.698,12.509c-8.945,2.326 -13.202,16.087 -9.506,30.817c3.708,14.776 14.014,24.921 23.018,22.661c0.821,-0.205 1.586,-0.538 2.326,-0.927c16.667,33.452 44.351,60.594 75.693,60.594s59.027,-27.139 75.693,-60.594c0.74,0.39 1.505,0.722 2.326,0.927c9.004,2.26 19.309,-7.885 23.018,-22.661c3.695,-14.73 -0.561,-28.494 -9.506,-30.817z"/>
  <path id="svg_8" fill="#E8CF89" d="m347.531,205.44c0.459,-4.244 0.698,-8.428 0.698,-12.509c0,-53.974 -41.293,-97.728 -92.229,-97.728c-0.193,0 -0.381,0.014 -0.574,0.016l0,223.349c0.191,0.002 0.383,0.016 0.574,0.016c31.342,0 59.027,-27.139 75.693,-60.594c0.74,0.39 1.505,0.722 2.326,0.927c9.004,2.26 19.309,-7.885 23.018,-22.661c3.695,-14.729 -0.561,-28.493 -9.506,-30.816z"/>
  <path id="svg_9" fill="#494948" d="m204.14,170.667c0,0 40.081,38.357 121.966,24.566c0,0 7.94,-1.998 21.425,10.207c0,0 22.535,-32.618 9.175,-85.628c0,0 -41.374,-13.36 -60.768,-25.428c-19.394,-12.067 -71.111,-24.997 -82.747,11.205c0,0 -37.495,-4.741 -47.838,34.047c-10.343,38.788 -0.883,65.803 -0.883,65.803s19.414,-46.84 39.67,-34.772z"/>
  <path id="svg_10" fill="#282826" d="m356.705,119.811c0,0 -41.374,-13.36 -60.768,-25.428c-8.975,-5.584 -24.869,-11.343 -40.512,-12.341l0,112.376c18.492,4.07 42.015,5.642 70.68,0.815c0,0 7.94,-1.998 21.425,10.207c0.001,0 22.536,-32.618 9.175,-85.629z"/>
  <polygon id="svg_11" fill="#B7CECC" points="256,481.461 211.32,401.291 256,356.752 300.68,401.291 "/>
  <polygon id="svg_12" fill="#8EA5A2" points="300.68,401.291 256,356.752 255.426,357.324 255.426,480.43 256,481.461 "/>
  <polygon id="svg_13" fill="#386895" points="274.677,375.513 256,356.752 237.323,375.513 247.811,388.992 247.811,470.411   264.189,470.411 264.189,388.992 "/>
  <g id="svg_14">
   <polygon id="svg_15" fill="#273B7A" points="256,356.752 255.426,357.329 255.426,470.411 264.189,470.411 264.189,388.992    274.677,375.513  "/>
   <path id="svg_16" fill="#273B7A" d="m358.384,360.108l-35.807,-6.682l-66.577,113.247l-66.655,-113.197l-35.73,6.632c-23.164,4.634 -39.838,24.972 -39.838,48.595l0,60.175c40.68,27.231 89.594,43.122 142.223,43.122s101.543,-15.891 142.222,-43.122l0,-60.175c0,-23.622 -16.673,-43.961 -39.838,-48.595z"/>
  </g>
  <path id="svg_17" fill="#121149" d="m358.384,360.108l-35.807,-6.682l-66.577,113.247l-0.574,-0.976l0,46.29c0.191,0 0.381,0.01 0.574,0.01c52.629,0 101.543,-15.891 142.222,-43.122l0,-60.173c0,-23.621 -16.673,-43.96 -39.838,-48.594z"/>
  <g id="svg_18"/>
  <g id="svg_19"/>
  <g id="svg_20"/>
  <g id="svg_21"/>
  <g id="svg_22"/>
  <g id="svg_23"/>
  <g id="svg_24"/>
  <g id="svg_25"/>
  <g id="svg_26"/>
  <g id="svg_27"/>
  <g id="svg_28"/>
  <g id="svg_29"/>
  <g id="svg_30"/>
  <g id="svg_31"/>
  <g id="svg_32"/>
 </g>
</svg>