<svg xmlns="http://www.w3.org/2000/svg" width="48.138" height="48.138" viewBox="0 0 48.138 48.138">
  <g id="Grupo_128" data-name="Grupo 128" transform="translate(0 0)">
    <path fill="#CACACA" id="Trazado_6" data-name="Trazado 6" d="M53.413,7.3A8.538,8.538,0,0,0,47.57,5h-31a8.537,8.537,0,0,0-5.842,2.3A8.02,8.02,0,0,0,8,13.334V44.57a8.568,8.568,0,0,0,8.568,8.568h31a8.568,8.568,0,0,0,8.568-8.568V13.334A8.02,8.02,0,0,0,53.413,7.3ZM13.579,10.447a3.779,3.779,0,0,1,2.461-.907H48.1a3.779,3.779,0,0,1,2.461.908,4.31,4.31,0,0,1,1.334,3.121v.626a3.8,3.8,0,0,1-3.8,3.8H16.04a3.8,3.8,0,0,1-3.8-3.8v-.626A4.31,4.31,0,0,1,13.579,10.447ZM47.57,48.893h-31a4.323,4.323,0,0,1-4.323-4.323V21.284a8,8,0,0,0,3.8.951H48.1a8,8,0,0,0,3.8-.951V44.57A4.323,4.323,0,0,1,47.57,48.893Z" transform="translate(-8 -5)"/>
    <path fill="#CACACA" id="Trazado_7" data-name="Trazado 7" d="M194.674,281.511a1.8,1.8,0,0,0-2.535-.167l-9.553,8.374a1.8,1.8,0,0,1-2.494-.122,1.8,1.8,0,0,0-2.539-.082l-.476.446A1.8,1.8,0,0,0,177,292.5l2.808,2.995a1.8,1.8,0,0,0,2.494.122l12.64-11.08A1.8,1.8,0,0,0,195.1,282Z" transform="translate(-162.137 -257.475)"/>
  </g>
</svg>
