<svg width="512" height="512" xmlns="http://www.w3.org/2000/svg" class="svg-inline--fa fa-check-circle fa-w-16">

 <g>
  <title>Layer 1</title>
  <path id="svg_1" d="m256,8c-136.967,0 -248,111.033 -248,248s111.033,248 248,248s248,-111.033 248,-248s-111.033,-248 -248,-248zm0,48c110.532,0 200,89.451 200,200c0,110.532 -89.451,200 -200,200c-110.532,0 -200,-89.451 -200,-200c0,-110.532 89.451,-200 200,-200m140.204,130.267l-22.536,-22.718c-4.667,-4.705 -12.265,-4.736 -16.97,-0.068l-141.352,140.216l-59.792,-60.277c-4.667,-4.705 -12.265,-4.736 -16.97,-0.069l-22.719,22.536c-4.705,4.667 -4.736,12.265 -0.068,16.971l90.781,91.516c4.667,4.705 12.265,4.736 16.97,0.068l172.589,-171.204c4.704,-4.668 4.734,-12.266 0.067,-16.971z" fill="#884D58"/>
 </g>
</svg>