<svg xmlns="http://www.w3.org/2000/svg" xmlns:xlink="http://www.w3.org/1999/xlink" width="316.14" height="267.64" viewBox="0 0 316.14 267.64">
  <defs>
    <clipPath id="clip-Coding">
      <rect width="316.14" height="267.64"/>
    </clipPath>
  </defs>
  <g id="Coding" clip-path="url(#clip-Coding)">
    <g id="Group_62" data-name="Group 62">
      <g id="Group_32" data-name="Group 32" transform="translate(-4.131 197.69)">
        <text id="CODING-2" data-name="CODING" transform="translate(97.201 68.95)" fill="#fff" font-size="24" font-family="Gotham-BoldItalic, Gotham" font-weight="700" font-style="italic" letter-spacing="0.23em"><tspan x="0" y="0">CODING</tspan></text>
      </g>
      <path id="Path_237" data-name="Path 237" d="M826.276,267.289c1.225-7.133-7.264-11.261-18.992-11.261-10.5,0-18.554,3.186-20.523,9.018l-2.145-7.9H766.369l-22.536,28.983-4.158-7.268c7.57-1.57,12.208-5.563,13.434-10.139,1.532-6.506-3.544-11.4-16.366-11.4h-23.5l-29.8.18h-2.8l-36.933.18h-15.8l-4.463,17.9-12.34-17.946H595.183l-6.477,25.8-7.089-25.8-18.248.179-5.732,7.269-.442.575a9,9,0,0,0-3.388-4.833c-3.444-2.572-8.606-3.716-16.984-3.494l-18.028.293L510.254,293.9l16.434-.111,3.067-9.814,5.193-.46a40.477,40.477,0,0,0,9.524-1.3l-8.407,10.744h16.672l3.852-5.2h16.847l1.226,5.2h27.656l4.464-17.587,12.34,17.587h15.928l6.652-26.291h10.5l-6.476,26.291h15.928l6.652-26.291h10.5l-6.652,26.291,32.6-.18h15.754l3.106-12.518,6.476,12.518H755.91l3.851-5.2h16.848l1.225,5.2h16.628c2.8.18,5.864,0,9.1,0,13,0,20.524-4.89,20.524-11.4,0-9.959-20.216-10.139-20.216-14.267,0-1.122,1.225-1.75,2.8-1.75,2.012,0,3.238.942,2.8,2.692Zm-292.323,7.694-1.491.363L533.687,267l2.857-.076a7.835,7.835,0,0,1,4.574,1.006A2.7,2.7,0,0,1,542.275,270C542.344,272.713,539.732,274.83,533.953,274.983Zm28.367,4.375,7.09-9.826,2.144,9.826Zm144.274,4.262H689.878l1.226-4.891h13.609l2.144-8.255H693.247l1.094-4.441h16.672Zm30.238-14.268c-.612,2.065-2.32,3.006-5.426,3.006H725.06l1.532-6.012h6.346C735.912,266.527,737.313,267.6,736.832,269.353Zm28.574,9.2,7.089-9.826,2.144,9.826Zm41.266,3.141c0,1.122-1.4,1.749-3.107,1.749-2.8,0-3.85-.942-3.719-3.006h-8.971l-2.012-6.954C794.638,278.058,806.5,278.371,806.672,281.692Z" transform="translate(-510.254 -60.548)" fill="#fff"/>
      <g id="Group_33" data-name="Group 33" transform="translate(-945.551 -68.173)">
        <path id="Path_148" data-name="Path 148" d="M1028.014,159.245c.385,0,.632-.359.753-1.089l.11-.664a3.031,3.031,0,0,0,.058-.452c.015-.514-.156-.778-.513-.778s-.632.387-.753,1.09l-.106.645a2.674,2.674,0,0,0-.057.455C1027.489,158.992,1027.656,159.245,1028.014,159.245Z" transform="translate(2.454 3.95)" fill="#fff"/>
        <path id="Path_149" data-name="Path 149" d="M1019.65,173.815c-.37,0-.632.388-.753,1.09l-.107.645a2.676,2.676,0,0,0-.057.456c-.015.539.152.794.51.794.384,0,.632-.361.753-1.091l.11-.664a3.032,3.032,0,0,0,.058-.452C1020.178,174.082,1020.008,173.815,1019.65,173.815Z" transform="translate(1.884 5.058)" fill="#fff"/>
        <path id="Path_150" data-name="Path 150" d="M1015.575,132.916c.385,0,.632-.361.753-1.091l.111-.664a3.16,3.16,0,0,0,.057-.452c.015-.511-.156-.778-.513-.778s-.632.388-.753,1.09l-.106.645a2.794,2.794,0,0,0-.057.456C1015.05,132.661,1015.217,132.916,1015.575,132.916Z" transform="translate(1.645 2.287)" fill="#fff"/>
        <path id="Path_151" data-name="Path 151" d="M1029.374,138.708c-.369,0-.631.388-.753,1.09l-.106.645a2.736,2.736,0,0,0-.057.456c-.015.539.152.794.509.794.384,0,.632-.361.753-1.091l.111-.664a3.033,3.033,0,0,0,.058-.452C1029.9,138.975,1029.732,138.708,1029.374,138.708Z" transform="translate(2.516 2.841)" fill="#fff"/>
        <path id="Path_152" data-name="Path 152" d="M1015.575,124.138c.385,0,.632-.359.753-1.089l.111-.664a3.124,3.124,0,0,0,.057-.452c.015-.514-.156-.778-.513-.778s-.632.387-.753,1.09l-.106.645a2.8,2.8,0,0,0-.057.455C1015.05,123.885,1015.217,124.138,1015.575,124.138Z" transform="translate(1.645 1.733)" fill="#fff"/>
        <path id="Path_153" data-name="Path 153" d="M1016.432,148.575l-.106.646a2.717,2.717,0,0,0-.057.455c-.015.539.152.794.509.794.384,0,.632-.361.754-1.09l.11-.666a3.054,3.054,0,0,0,.058-.451c.015-.512-.157-.779-.513-.779S1016.554,147.873,1016.432,148.575Z" transform="translate(1.724 3.396)" fill="#fff"/>
        <path id="Path_154" data-name="Path 154" d="M1015.575,115.361c.385,0,.632-.36.753-1.089l.111-.664a3.16,3.16,0,0,0,.057-.452c.015-.514-.156-.778-.513-.778s-.632.386-.753,1.09l-.106.645a2.774,2.774,0,0,0-.057.455C1015.05,115.107,1015.217,115.361,1015.575,115.361Z" transform="translate(1.645 1.179)" fill="#fff"/>
        <path id="Path_155" data-name="Path 155" d="M1197.078,95.039H1096.656l-15.27,79.6c-2.442,12.367-10.12,21.25-24.952,21.25s-18.5-9.231-16.053-21.25l2.937-15.981a37.654,37.654,0,0,0,.607-7.16l-.331.192.217-1.272.09-.05a37.723,37.723,0,0,0-.48-4.755c-.078.006-.152.019-.234.019a1.837,1.837,0,0,1-1.94-2.014,3.662,3.662,0,0,1,.056-.663l.08-.46a2.772,2.772,0,0,1,.88-1.731,37.727,37.727,0,0,0-3.239-7.533l-.524,2.982h-1.513l.688-3.9h-.071l-1.225.709.216-1.272,1.139-.629a37.921,37.921,0,0,0-3.615-4.684l-.853-.939-.242,1.38h-1.515l.49-2.773-.624-.688-.474.275.114-.671-6.515-7.169-.3,1.694h-1.515l.546-3.086-.458-.5-.7.4.168-.986-4.689-5.161h-.347l.056-.319-1.583-1.741c-.276,1.385-1.054,2.149-2.274,2.149a1.837,1.837,0,0,1-1.939-2.014,3.566,3.566,0,0,1,.056-.663l.08-.46a2.474,2.474,0,0,1,1.343-2.02l-3.891-4.28a2.4,2.4,0,0,1-.7.106,1.838,1.838,0,0,1-1.939-2.014v-.04l-15.076,77.628c-8.288,41.805,16.926,63.055,56.362,63.055,21.2,0,40.919-5.487,56.013-17.506,13-10.451,22.51-25.518,26.524-45.461,0,0,3.664-17.245,4.623-23.08,2.443-14.718,11.081-19.944,11.081-19.944s4.363,8.97,13.523,10.538a19.969,19.969,0,0,0,7.068-.349,13.679,13.679,0,0,1-6.456-.958c-4.275-1.481-9.249-5.225-12.913-12.89,0,0-1.833-4.007,2.792-2.177,3.315,1.567,10.47,3.135,15.356,2.177a1.115,1.115,0,0,1,.96-.349,11.2,11.2,0,0,0,3.053-1.567s-8.288,1.219-10.469-.959c0,0,4.625-.609,11.429-4.615,5.846-3.31,14.134-4.616,19.718-3.658,2.705.349,5.846,2.177,9.51,2.788a178.709,178.709,0,0,0,19.718,2.438s2.792,8.622-.61,9.842l-1.832.958s.61,6.794-.96,9.842c0,0-3.053-6.794-4.276-6.183,0,0-7.677,2.438-12.3,7.664a12.928,12.928,0,0,0-3.055,5.574l-.61,2.787v4.355s.961,6.445,2.792,9.232c.61-.349,3.4-.61,5.235-2.178-.349.349-.96,3.049-2.793,4.616.611.61,1.222,1.83.611,2.439a13.519,13.519,0,0,1-15.356,3.048s1.833-9.842-5.846-9.493c-11.691.262-23.731,8.884-29.576,14.718C1137.4,191.887,1103.2,235.52,1103.2,235.52h46.154l8.9-44.853h19.369c39.437,0,63.778-21.512,69.013-47.64C1252.218,114.374,1235.9,94.779,1197.078,95.039ZM1041.7,159.031l-.908,5.179h-1.513l.688-3.9h-.072l-1.225.71.217-1.273,1.3-.721Zm-4.723-18.745a1.839,1.839,0,0,1,1.944,2.027,3.312,3.312,0,0,1-.05.625l-.087.479c-.262,1.431-1.049,2.218-2.29,2.218a1.838,1.838,0,0,1-1.939-2.014,3.574,3.574,0,0,1,.057-.663l.08-.46C1034.93,141.075,1035.736,140.286,1036.98,140.286Zm-5.676-6.658.08-.46c.236-1.424,1.043-2.213,2.287-2.213a1.839,1.839,0,0,1,1.944,2.027,3.389,3.389,0,0,1-.05.626l-.087.479c-.262,1.431-1.049,2.218-2.29,2.218a1.838,1.838,0,0,1-1.94-2.014A3.652,3.652,0,0,1,1031.3,133.627Zm-2.521-1.307-1.225.709.216-1.272,1.3-.721h1.51l-.908,5.179h-1.515l.689-3.9Zm-2.955-8.025.08-.458c.235-1.425,1.042-2.215,2.286-2.215a1.839,1.839,0,0,1,1.944,2.027,3.426,3.426,0,0,1-.049.627l-.087.477c-.263,1.432-1.05,2.218-2.29,2.218a1.837,1.837,0,0,1-1.941-2.011A3.588,3.588,0,0,1,1025.828,124.3Zm-1.316,18.662.08-.46c.236-1.424,1.043-2.212,2.286-2.212a1.839,1.839,0,0,1,1.944,2.027,3.4,3.4,0,0,1-.049.625l-.087.479c-.263,1.431-1.05,2.218-2.29,2.218a1.837,1.837,0,0,1-1.939-2.014A3.567,3.567,0,0,1,1024.512,142.958Zm6.4,15.989a1.839,1.839,0,0,1,1.944,2.027,3.4,3.4,0,0,1-.05.627l-.087.477c-.262,1.432-1.05,2.218-2.29,2.218a1.836,1.836,0,0,1-1.939-2.011,3.58,3.58,0,0,1,.056-.666l.08-.458C1028.863,159.737,1029.67,158.947,1030.914,158.947Zm-4.887,1.367-1.225.71.216-1.273,1.3-.721h1.51l-.91,5.179h-1.514l.688-3.9Zm-1.34-10.614-.909,5.18h-1.513l.688-3.9h-.073l-1.225.709.217-1.272,1.3-.722Zm-4.1-27.272,1.3-.721h1.51l-.91,5.179h-1.513l.688-3.9h-.071l-1.225.71Zm0,9.33,1.3-.721h1.51l-.91,5.179h-1.513l.688-3.9h-.071l-1.225.709Zm.3,19.886a3.423,3.423,0,0,1-.049.626l-.087.479c-.263,1.431-1.05,2.217-2.29,2.217a1.837,1.837,0,0,1-1.94-2.013,3.577,3.577,0,0,1,.057-.664l.08-.46a2.275,2.275,0,0,1,2.286-2.212A1.839,1.839,0,0,1,1020.891,151.644Zm-5.591-36.68.08-.459c.236-1.424,1.043-2.213,2.287-2.213a1.839,1.839,0,0,1,1.944,2.027,3.436,3.436,0,0,1-.05.627l-.087.477c-.262,1.432-1.05,2.217-2.29,2.217a1.836,1.836,0,0,1-1.939-2.01A3.669,3.669,0,0,1,1015.3,114.965Zm0,9.331.08-.458c.236-1.425,1.043-2.215,2.287-2.215a1.839,1.839,0,0,1,1.944,2.027,3.42,3.42,0,0,1-.05.627l-.087.477c-.262,1.432-1.05,2.218-2.29,2.218a1.836,1.836,0,0,1-1.939-2.011A3.677,3.677,0,0,1,1015.3,124.3Zm0,9.331.08-.46c.236-1.424,1.043-2.213,2.287-2.213a1.839,1.839,0,0,1,1.944,2.027,3.4,3.4,0,0,1-.05.626l-.087.479c-.262,1.431-1.05,2.218-2.29,2.218a1.838,1.838,0,0,1-1.939-2.014A3.662,3.662,0,0,1,1015.3,133.627Zm-3.53-20.53,1.3-.722h1.51l-.909,5.18h-1.513l.689-3.9h-.072l-1.225.71Zm0,9.331,1.3-.721h1.51l-.909,5.179h-1.513l.689-3.9h-.072l-1.225.71Zm0,9.33,1.3-.721h1.51l-.909,5.179h-1.513l.689-3.9h-.072l-1.225.709Zm-.24,20.532.08-.46c.236-1.422,1.043-2.212,2.287-2.212a1.839,1.839,0,0,1,1.944,2.027,3.416,3.416,0,0,1-.05.626l-.087.479c-.262,1.431-1.05,2.217-2.29,2.217a1.837,1.837,0,0,1-1.939-2.013A3.569,3.569,0,0,1,1011.53,152.29Zm-.791,27.972-.087.479c-.262,1.431-1.049,2.218-2.29,2.218a1.838,1.838,0,0,1-1.939-2.014,3.574,3.574,0,0,1,.057-.663l.08-.46c.235-1.424,1.042-2.212,2.286-2.212a1.839,1.839,0,0,1,1.944,2.027A3.3,3.3,0,0,1,1010.739,180.262Zm0-9.329-.087.477c-.262,1.432-1.049,2.218-2.29,2.218a1.837,1.837,0,0,1-1.939-2.012,3.578,3.578,0,0,1,.057-.664l.08-.459c.235-1.425,1.042-2.215,2.286-2.215a1.839,1.839,0,0,1,1.944,2.027A3.326,3.326,0,0,1,1010.739,170.933Zm0-9.331-.087.477c-.262,1.432-1.049,2.218-2.29,2.218a1.837,1.837,0,0,1-1.939-2.011,3.588,3.588,0,0,1,.057-.666l.08-.458c.235-1.425,1.042-2.215,2.286-2.215a1.839,1.839,0,0,1,1.944,2.027A3.325,3.325,0,0,1,1010.739,161.6Zm0-9.331-.087.479c-.262,1.431-1.049,2.217-2.29,2.217a1.837,1.837,0,0,1-1.939-2.013,3.577,3.577,0,0,1,.057-.664l.08-.46c.235-1.422,1.042-2.212,2.286-2.212a1.839,1.839,0,0,1,1.944,2.027A3.322,3.322,0,0,1,1010.739,152.271Zm0-18.664-.087.479c-.262,1.431-1.049,2.218-2.29,2.218a1.838,1.838,0,0,1-1.939-2.014,3.574,3.574,0,0,1,.057-.663l.08-.46c.235-1.424,1.042-2.213,2.286-2.213a1.839,1.839,0,0,1,1.944,2.027A3.306,3.306,0,0,1,1010.739,133.607Zm0-9.329-.087.477c-.262,1.432-1.049,2.218-2.29,2.218a1.837,1.837,0,0,1-1.939-2.011,3.588,3.588,0,0,1,.057-.666l.08-.458c.235-1.425,1.042-2.215,2.286-2.215a1.839,1.839,0,0,1,1.944,2.027A3.326,3.326,0,0,1,1010.739,124.278Zm0-9.331-.087.477c-.262,1.432-1.049,2.217-2.29,2.217a1.836,1.836,0,0,1-1.939-2.01,3.581,3.581,0,0,1,.057-.666l.08-.459c.235-1.424,1.042-2.213,2.286-2.213a1.839,1.839,0,0,1,1.944,2.027A3.341,3.341,0,0,1,1010.739,114.947Zm0-9.332-.087.479c-.262,1.431-1.049,2.218-2.29,2.218a1.838,1.838,0,0,1-1.939-2.014,3.574,3.574,0,0,1,.057-.663l.08-.46c.235-1.424,1.042-2.212,2.286-2.212a1.839,1.839,0,0,1,1.944,2.027A3.3,3.3,0,0,1,1010.739,105.614Zm2.936,77.257h-1.513l.689-3.9h-.072l-1.225.71.216-1.272,1.3-.722h1.51Zm-.262-9.243a1.836,1.836,0,0,1-1.939-2.012,3.569,3.569,0,0,1,.056-.664l.08-.459c.236-1.425,1.043-2.215,2.287-2.215a1.839,1.839,0,0,1,1.944,2.027,3.42,3.42,0,0,1-.05.627l-.087.477C1015.441,172.842,1014.653,173.628,1013.413,173.628Zm4.169,9.243h-1.513l.688-3.9h-.072l-1.225.71.217-1.272,1.3-.722h1.51Zm5.884-2.609-.087.479c-.263,1.431-1.05,2.218-2.29,2.218a1.837,1.837,0,0,1-1.94-2.014,3.567,3.567,0,0,1,.057-.663l.08-.46c.236-1.424,1.043-2.212,2.287-2.212a1.838,1.838,0,0,1,1.943,2.027A3.4,3.4,0,0,1,1023.466,180.262Zm.521-18.66-.087.477c-.262,1.432-1.05,2.218-2.29,2.218a1.836,1.836,0,0,1-1.939-2.011,3.677,3.677,0,0,1,.056-.666l.08-.458c.236-1.425,1.043-2.215,2.287-2.215a1.839,1.839,0,0,1,1.944,2.027A3.409,3.409,0,0,1,1023.987,161.6Zm2.416,21.269h-1.513l.688-3.9h-.072l-1.225.71.217-1.272,1.3-.722h1.51Zm2.636-11.938-.087.477c-.263,1.432-1.05,2.218-2.29,2.218a1.836,1.836,0,0,1-1.939-2.012,3.569,3.569,0,0,1,.056-.664l.08-.459c.236-1.425,1.043-2.215,2.286-2.215a1.839,1.839,0,0,1,1.944,2.027A3.427,3.427,0,0,1,1029.038,170.933Zm2.936,2.608h-1.513l.688-3.9h-.072l-1.225.71.217-1.273,1.3-.721h1.51Zm-.528-27.906a1.838,1.838,0,0,1-1.94-2.014,3.564,3.564,0,0,1,.057-.663l.08-.46c.235-1.424,1.042-2.212,2.286-2.212a1.839,1.839,0,0,1,1.944,2.027,3.4,3.4,0,0,1-.049.625l-.087.479C1033.473,144.849,1032.686,145.635,1031.446,145.635Zm2.152,15.984.08-.458c.235-1.425,1.043-2.215,2.286-2.215a1.839,1.839,0,0,1,1.944,2.027,3.427,3.427,0,0,1-.049.627l-.087.477c-.263,1.432-1.05,2.218-2.29,2.218a1.837,1.837,0,0,1-1.94-2.011A3.587,3.587,0,0,1,1033.6,161.62Zm1.385,8.026-1.225.71.217-1.273,1.3-.721h1.509l-.909,5.179h-1.514l.689-3.9Zm1.883,13.226h-1.515l.689-3.9h-.072l-1.225.71.217-1.272,1.3-.722h1.51Zm2.024-13.226-1.225.71.216-1.273,1.3-.721h1.51l-.908,5.179h-1.515l.689-3.9Z" transform="translate(0 0.084)" fill="#fff"/>
        <path id="Path_156" data-name="Path 156" d="M1039.54,140.362a2.8,2.8,0,0,0-.057.456c-.014.52.145.77.477.787q-.161-.81-.359-1.613Z" transform="translate(3.233 2.922)" fill="#fff"/>
        <path id="Path_157" data-name="Path 157" d="M1011.69,104.691l-.106.645a2.683,2.683,0,0,0-.058.456c-.015.539.152.794.51.794.383,0,.632-.361.753-1.091l.11-.664a3.046,3.046,0,0,0,.057-.452,1.55,1.55,0,0,0-.015-.221l-.5-.555C1012.071,103.607,1011.81,103.993,1011.69,104.691Z" transform="translate(1.415 0.625)" fill="#fff"/>
        <path id="Path_158" data-name="Path 158" d="M1030.6,132.916c.384,0,.632-.361.753-1.091l.111-.664a3.175,3.175,0,0,0,.056-.452c.016-.511-.156-.778-.513-.778s-.632.388-.753,1.09l-.107.645a2.8,2.8,0,0,0-.057.456C1030.078,132.661,1030.245,132.916,1030.6,132.916Z" transform="translate(2.623 2.287)" fill="#fff"/>
        <path id="Path_159" data-name="Path 159" d="M1032.756,159.245c.385,0,.632-.359.754-1.089l.11-.664a3.012,3.012,0,0,0,.057-.452c.015-.514-.156-.778-.513-.778s-.632.387-.753,1.09l-.106.645a2.688,2.688,0,0,0-.058.455C1032.232,158.992,1032.4,159.245,1032.756,159.245Z" transform="translate(2.763 3.95)" fill="#fff"/>
        <path id="Path_160" data-name="Path 160" d="M1033.71,141.693c.385,0,.632-.361.753-1.091l.111-.664a3.193,3.193,0,0,0,.056-.452c.016-.511-.156-.778-.513-.778s-.632.388-.753,1.09l-.106.645a2.8,2.8,0,0,0-.058.456C1033.185,141.438,1033.352,141.693,1033.71,141.693Z" transform="translate(2.825 2.841)" fill="#fff"/>
        <path id="Path_161" data-name="Path 161" d="M1025.46,124.138c.385,0,.632-.359.753-1.089l.111-.664a3.009,3.009,0,0,0,.057-.452c.015-.514-.156-.778-.514-.778s-.63.387-.753,1.09l-.106.645a2.734,2.734,0,0,0-.056.455C1024.935,123.885,1025.1,124.138,1025.46,124.138Z" transform="translate(2.288 1.733)" fill="#fff"/>
        <path id="Path_162" data-name="Path 162" d="M1024.225,141.693c.383,0,.631-.361.753-1.091l.11-.664a3.063,3.063,0,0,0,.057-.452c.015-.511-.157-.778-.513-.778s-.632.388-.753,1.09l-.107.645a2.67,2.67,0,0,0-.057.456C1023.7,141.438,1023.867,141.693,1024.225,141.693Z" transform="translate(2.208 2.841)" fill="#fff"/>
        <path id="Path_163" data-name="Path 163" d="M1007.7,156.262c-.369,0-.631.387-.753,1.09l-.107.645a2.749,2.749,0,0,0-.056.455c-.016.54.151.793.509.793.384,0,.631-.359.753-1.089l.111-.664a3.125,3.125,0,0,0,.057-.452C1008.229,156.527,1008.058,156.262,1007.7,156.262Z" transform="translate(1.107 3.95)" fill="#fff"/>
        <path id="Path_164" data-name="Path 164" d="M1007.7,103.6c-.369,0-.631.388-.753,1.09l-.107.645a2.743,2.743,0,0,0-.056.456c-.016.539.151.794.509.794.384,0,.631-.361.753-1.091l.111-.664a3.16,3.16,0,0,0,.057-.452C1008.229,103.868,1008.058,103.6,1007.7,103.6Z" transform="translate(1.107 0.624)" fill="#fff"/>
        <path id="Path_165" data-name="Path 165" d="M1007.7,173.815c-.369,0-.631.388-.753,1.09l-.107.645a2.743,2.743,0,0,0-.056.456c-.016.539.151.794.509.794.384,0,.631-.361.753-1.091l.111-.664a3.16,3.16,0,0,0,.057-.452C1008.229,174.082,1008.058,173.815,1007.7,173.815Z" transform="translate(1.107 5.058)" fill="#fff"/>
        <path id="Path_166" data-name="Path 166" d="M1007.7,112.378c-.369,0-.631.386-.753,1.09l-.107.645a2.724,2.724,0,0,0-.056.455c-.016.539.151.793.509.793.384,0,.631-.36.753-1.089l.111-.664a3.16,3.16,0,0,0,.057-.452C1008.229,112.643,1008.058,112.378,1007.7,112.378Z" transform="translate(1.107 1.179)" fill="#fff"/>
        <path id="Path_167" data-name="Path 167" d="M1007.7,165.039c-.369,0-.631.387-.753,1.09l-.107.645a2.744,2.744,0,0,0-.056.456c-.016.539.151.793.509.793.384,0,.631-.36.753-1.09l.111-.663a3.154,3.154,0,0,0,.057-.453C1008.229,165.3,1008.058,165.039,1007.7,165.039Z" transform="translate(1.107 4.504)" fill="#fff"/>
        <path id="Path_168" data-name="Path 168" d="M1007.7,147.485c-.369,0-.631.388-.753,1.09l-.107.646a2.724,2.724,0,0,0-.056.455c-.016.539.151.794.509.794.384,0,.631-.361.753-1.09l.111-.666a3.166,3.166,0,0,0,.057-.451C1008.229,147.752,1008.058,147.485,1007.7,147.485Z" transform="translate(1.107 3.396)" fill="#fff"/>
        <path id="Path_169" data-name="Path 169" d="M1007.7,129.931c-.369,0-.631.388-.753,1.09l-.107.645a2.743,2.743,0,0,0-.056.456c-.016.539.151.794.509.794.384,0,.631-.361.753-1.091l.111-.664a3.16,3.16,0,0,0,.057-.452C1008.229,130.2,1008.058,129.931,1007.7,129.931Z" transform="translate(1.107 2.287)" fill="#fff"/>
        <path id="Path_170" data-name="Path 170" d="M1020.139,156.262c-.369,0-.632.387-.753,1.09l-.106.645a2.8,2.8,0,0,0-.057.455c-.015.54.152.793.51.793.385,0,.632-.359.753-1.089l.111-.664a3.139,3.139,0,0,0,.056-.452C1020.667,156.527,1020.5,156.262,1020.139,156.262Z" transform="translate(1.916 3.95)" fill="#fff"/>
        <path id="Path_171" data-name="Path 171" d="M1007.7,121.155c-.369,0-.631.387-.753,1.09l-.107.645a2.749,2.749,0,0,0-.056.455c-.016.54.151.793.509.793.384,0,.631-.359.753-1.089l.111-.664a3.124,3.124,0,0,0,.057-.452C1008.229,121.42,1008.058,121.155,1007.7,121.155Z" transform="translate(1.107 1.733)" fill="#fff"/>
        <path id="Path_172" data-name="Path 172" d="M1024.882,165.039c-.37,0-.632.387-.753,1.09l-.106.645a2.677,2.677,0,0,0-.057.456c-.015.539.152.793.51.793.383,0,.63-.36.753-1.09l.11-.663a3.04,3.04,0,0,0,.057-.453C1025.41,165.3,1025.239,165.039,1024.882,165.039Z" transform="translate(2.224 4.504)" fill="#fff"/>
        <path id="Path_173" data-name="Path 173" d="M1012.036,150.47c.383,0,.632-.361.753-1.09l.11-.666a3.051,3.051,0,0,0,.057-.451c.015-.512-.156-.779-.513-.779s-.632.388-.753,1.09l-.106.646a2.665,2.665,0,0,0-.058.455C1011.511,150.215,1011.678,150.47,1012.036,150.47Z" transform="translate(1.415 3.396)" fill="#fff"/>
        <path id="Path_174" data-name="Path 174" d="M1012.443,165.039c-.369,0-.632.387-.753,1.09l-.106.645a2.683,2.683,0,0,0-.058.456c-.015.539.152.793.51.793.383,0,.632-.36.753-1.09l.11-.663a3.04,3.04,0,0,0,.057-.453C1012.971,165.3,1012.8,165.039,1012.443,165.039Z" transform="translate(1.415 4.504)" fill="#fff"/>
        <path id="Path_175" data-name="Path 175" d="M1005.841,96.531l2.2,2.426a2.429,2.429,0,0,0,1.589-2.111l.087-.479a3.306,3.306,0,0,0,.05-.626,1.839,1.839,0,0,0-1.944-2.027c-1.244,0-2.05.79-2.286,2.213l-.08.46a3.661,3.661,0,0,0-.057.623l.174-.894Zm1.089.1.107-.645c.121-.7.384-1.09.753-1.09s.529.267.513.778a3.16,3.16,0,0,1-.057.452l-.111.664c-.121.729-.369,1.091-.753,1.091-.358,0-.525-.255-.509-.794A2.743,2.743,0,0,1,1006.93,96.629Z" transform="translate(1.017)" fill="#fff"/>
        <path id="Path_176" data-name="Path 176" d="M1012.087,99.064c1.24,0,2.028-.787,2.29-2.218l.087-.479a3.4,3.4,0,0,0,.05-.626,1.839,1.839,0,0,0-1.944-2.027c-1.244,0-2.05.79-2.287,2.213l-.08.46a3.566,3.566,0,0,0-.056.663A1.838,1.838,0,0,0,1012.087,99.064Zm-.414-2.435.106-.645c.121-.7.385-1.09.753-1.09s.528.267.513.778a3.046,3.046,0,0,1-.057.452l-.11.664c-.121.729-.37,1.091-.753,1.091-.358,0-.525-.255-.51-.794A2.683,2.683,0,0,1,1011.673,96.629Z" transform="translate(1.325)" fill="#fff"/>
        <path id="Path_177" data-name="Path 177" d="M1016.262,95.075l-.688,3.9h1.514l.909-5.179h-1.51l-1.3.721-.217,1.271,1.225-.709Z" transform="translate(1.639 0.005)" fill="#fff"/>
        <path id="Path_178" data-name="Path 178" d="M1021.469,95.075l-.688,3.9h1.514l.909-5.179h-1.51l-1.3.721-.217,1.271,1.225-.709Z" transform="translate(1.978 0.005)" fill="#fff"/>
        <path id="Path_179" data-name="Path 179" d="M1025.137,95.075l-.688,3.9h1.514l.909-5.179h-1.51l-1.3.721-.217,1.271,1.225-.709Z" transform="translate(2.216 0.005)" fill="#fff"/>
        <path id="Path_180" data-name="Path 180" d="M1028.8,95.075l-.688,3.9h1.514l.909-5.179h-1.51l-1.3.721-.217,1.271,1.225-.709Z" transform="translate(2.455 0.005)" fill="#fff"/>
        <path id="Path_181" data-name="Path 181" d="M1034.515,99.064c1.24,0,2.027-.787,2.29-2.218l.087-.479a3.406,3.406,0,0,0,.049-.626A1.839,1.839,0,0,0,1035,93.713c-1.243,0-2.05.79-2.286,2.213l-.08.46a3.566,3.566,0,0,0-.056.663A1.838,1.838,0,0,0,1034.515,99.064Zm-.414-2.435.106-.645c.121-.7.383-1.09.753-1.09s.528.267.513.778a3.062,3.062,0,0,1-.057.452l-.11.664c-.122.729-.37,1.091-.753,1.091-.358,0-.525-.255-.51-.794A2.683,2.683,0,0,1,1034.1,96.629Z" transform="translate(2.784)" fill="#fff"/>
        <path id="Path_182" data-name="Path 182" d="M1038.69,95.075l-.688,3.9h1.514l.909-5.179h-1.51l-1.3.721-.217,1.271,1.225-.709Z" transform="translate(3.098 0.005)" fill="#fff"/>
        <path id="Path_183" data-name="Path 183" d="M1045.939,99.064c1.241,0,2.028-.787,2.29-2.218l.088-.479a3.4,3.4,0,0,0,.049-.626,1.839,1.839,0,0,0-1.944-2.027c-1.244,0-2.05.79-2.286,2.213l-.08.46a3.574,3.574,0,0,0-.057.663A1.838,1.838,0,0,0,1045.939,99.064Zm-.414-2.435.106-.645c.121-.7.385-1.09.753-1.09s.529.267.513.778a3.175,3.175,0,0,1-.056.452l-.111.664c-.121.729-.368,1.091-.753,1.091-.358,0-.525-.255-.509-.794A2.729,2.729,0,0,1,1045.525,96.629Z" transform="translate(3.527)" fill="#fff"/>
        <path id="Path_184" data-name="Path 184" d="M1050.115,95.075l-.689,3.9h1.514l.909-5.179h-1.51l-1.3.721-.217,1.271,1.225-.709Z" transform="translate(3.841 0.005)" fill="#fff"/>
        <path id="Path_185" data-name="Path 185" d="M1057.365,99.064c1.241,0,2.028-.787,2.291-2.218l.086-.479a3.306,3.306,0,0,0,.05-.626,1.839,1.839,0,0,0-1.944-2.027c-1.245,0-2.051.79-2.286,2.213l-.081.46a3.576,3.576,0,0,0-.056.663A1.838,1.838,0,0,0,1057.365,99.064Zm-.414-2.435.106-.645c.122-.7.384-1.09.753-1.09s.528.267.513.778a3.06,3.06,0,0,1-.057.452l-.111.664c-.121.729-.369,1.091-.752,1.091-.358,0-.526-.255-.51-.794A2.8,2.8,0,0,1,1056.95,96.629Z" transform="translate(4.27)" fill="#fff"/>
        <path id="Path_186" data-name="Path 186" d="M1012.442,103.671c.3,0,.459.2.5.557l1.33,1.464c0-.024.012-.045.016-.069l.087-.479a3.4,3.4,0,0,0,.05-.625,1.839,1.839,0,0,0-1.944-2.027,2.3,2.3,0,0,0-.944.192l.9.99Z" transform="translate(1.416 0.554)" fill="#fff"/>
        <path id="Path_187" data-name="Path 187" d="M1017.088,107.748l.909-5.179h-1.51l-1.3.721-.217,1.271,1.225-.709h.072l-.632,3.576.291.32Z" transform="translate(1.639 0.559)" fill="#fff"/>
        <path id="Path_188" data-name="Path 188" d="M1020.369,107.841c1.24,0,2.027-.787,2.29-2.218l.087-.479a3.391,3.391,0,0,0,.049-.625,1.839,1.839,0,0,0-1.944-2.027c-1.243,0-2.049.789-2.286,2.212l-.08.46a3.566,3.566,0,0,0-.056.663A1.837,1.837,0,0,0,1020.369,107.841Zm-.414-2.435.106-.645c.121-.7.383-1.09.753-1.09s.528.267.513.778a3.046,3.046,0,0,1-.057.452l-.11.664c-.122.729-.37,1.091-.753,1.091-.358,0-.525-.255-.51-.794A2.683,2.683,0,0,1,1019.955,105.406Z" transform="translate(1.864 0.554)" fill="#fff"/>
        <path id="Path_189" data-name="Path 189" d="M1024.544,103.853l-.688,3.9h1.514l.909-5.179h-1.51l-1.3.721-.217,1.271,1.225-.709Z" transform="translate(2.178 0.559)" fill="#fff"/>
        <path id="Path_190" data-name="Path 190" d="M1028.651,107.841c1.24,0,2.027-.787,2.29-2.218l.087-.479a3.4,3.4,0,0,0,.049-.625,1.839,1.839,0,0,0-1.944-2.027c-1.243,0-2.05.789-2.286,2.212l-.08.46a3.573,3.573,0,0,0-.057.663A1.838,1.838,0,0,0,1028.651,107.841Zm-.414-2.435.106-.645c.121-.7.383-1.09.753-1.09s.528.267.513.778a3.046,3.046,0,0,1-.057.452l-.11.664c-.122.729-.37,1.091-.753,1.091-.358,0-.525-.255-.51-.794A2.683,2.683,0,0,1,1028.237,105.406Z" transform="translate(2.403 0.554)" fill="#fff"/>
        <path id="Path_191" data-name="Path 191" d="M1032.826,103.853l-.689,3.9h1.514l.909-5.179h-1.51l-1.3.721-.217,1.271,1.225-.709Z" transform="translate(2.716 0.559)" fill="#fff"/>
        <path id="Path_192" data-name="Path 192" d="M1035.13,104.7l-.08.46a3.573,3.573,0,0,0-.057.663,1.838,1.838,0,0,0,1.94,2.014c1.24,0,2.027-.787,2.29-2.218l.087-.479a3.4,3.4,0,0,0,.049-.625,1.839,1.839,0,0,0-1.944-2.027C1036.172,102.491,1035.366,103.28,1035.13,104.7Zm1.388.7.106-.645c.122-.7.384-1.09.753-1.09s.529.267.514.778a3.046,3.046,0,0,1-.057.452l-.111.664c-.121.729-.369,1.091-.753,1.091-.357,0-.524-.255-.509-.794A2.743,2.743,0,0,1,1036.518,105.406Z" transform="translate(2.941 0.554)" fill="#fff"/>
        <path id="Path_193" data-name="Path 193" d="M1039.811,104.562l1.225-.709h.072l-.689,3.9h1.514l.909-5.179h-1.51l-1.3.721Z" transform="translate(3.255 0.559)" fill="#fff"/>
        <path id="Path_194" data-name="Path 194" d="M1045.235,103.291l-.217,1.271,1.225-.709h.072l-.688,3.9h1.514l.909-5.179h-1.51Z" transform="translate(3.594 0.559)" fill="#fff"/>
        <path id="Path_195" data-name="Path 195" d="M1053.061,103.853l-.688,3.9h1.514l.91-5.179h-1.511l-1.3.721-.217,1.271,1.225-.709Z" transform="translate(4.032 0.559)" fill="#fff"/>
        <path id="Path_196" data-name="Path 196" d="M1058.463,102.569h-1.511l-1.3.721-.217,1.271,1.225-.709h.073l-.689,3.9h1.514Z" transform="translate(4.271 0.559)" fill="#fff"/>
        <path id="Path_197" data-name="Path 197" d="M1021.323,112.629h.072l-.143.81,1.266,1.393.612-3.486h-1.51l-1.3.721-.049.287.529.581Z" transform="translate(1.984 1.113)" fill="#fff"/>
        <path id="Path_198" data-name="Path 198" d="M1025.995,111.267c-1.244,0-2.05.79-2.286,2.213l-.08.459a3.581,3.581,0,0,0-.057.666,1.836,1.836,0,0,0,1.941,2.01c1.24,0,2.027-.785,2.29-2.217l.087-.477a3.442,3.442,0,0,0,.049-.627A1.839,1.839,0,0,0,1025.995,111.267Zm.419,2.411-.111.664c-.121.728-.368,1.089-.753,1.089-.357,0-.525-.254-.509-.793a2.71,2.71,0,0,1,.056-.455l.106-.645c.123-.7.385-1.09.753-1.09s.529.265.514.778A3.043,3.043,0,0,1,1026.414,113.678Z" transform="translate(2.199 1.108)" fill="#fff"/>
        <path id="Path_199" data-name="Path 199" d="M1029.994,113.339l1.225-.711h.072l-.689,3.9h1.514l.909-5.179h-1.51l-1.3.721Z" transform="translate(2.616 1.113)" fill="#fff"/>
        <path id="Path_200" data-name="Path 200" d="M1037.687,114.4l.087-.477a3.453,3.453,0,0,0,.049-.627,1.838,1.838,0,0,0-1.943-2.027c-1.244,0-2.05.79-2.287,2.213l-.08.459a3.583,3.583,0,0,0-.056.666,1.836,1.836,0,0,0,1.939,2.01C1036.637,116.616,1037.424,115.831,1037.687,114.4Zm-2.761.239a2.651,2.651,0,0,1,.057-.455l.106-.645c.122-.7.384-1.09.753-1.09s.528.265.513.778a3.06,3.06,0,0,1-.057.452l-.11.664c-.121.728-.369,1.089-.753,1.089C1035.078,115.431,1034.911,115.177,1034.926,114.638Z" transform="translate(2.842 1.108)" fill="#fff"/>
        <path id="Path_201" data-name="Path 201" d="M1041.418,113.339l1.225-.711h.072l-.688,3.9h1.514l.909-5.179h-1.51l-1.3.721Z" transform="translate(3.359 1.113)" fill="#fff"/>
        <path id="Path_202" data-name="Path 202" d="M1046.842,112.067l-.217,1.272,1.225-.711h.072l-.688,3.9h1.514l.909-5.179h-1.51Z" transform="translate(3.698 1.113)" fill="#fff"/>
        <path id="Path_203" data-name="Path 203" d="M1056.445,113.48l-.079.459a3.591,3.591,0,0,0-.057.666,1.836,1.836,0,0,0,1.94,2.01c1.239,0,2.027-.785,2.289-2.217l.088-.477a3.543,3.543,0,0,0,.049-.627,1.839,1.839,0,0,0-1.944-2.027C1057.489,111.267,1056.683,112.057,1056.445,113.48Zm2.763-.254a3.06,3.06,0,0,1-.057.452l-.11.664c-.121.728-.369,1.089-.754,1.089-.357,0-.524-.254-.509-.793a2.724,2.724,0,0,1,.057-.455l.106-.645c.123-.7.385-1.09.754-1.09S1059.223,112.713,1059.208,113.226Z" transform="translate(4.328 1.108)" fill="#fff"/>
        <path id="Path_204" data-name="Path 204" d="M1029.608,121.406h.072l-.2,1.123,1.266,1.393.667-3.8h-1.51l-1.3.721-.1.6.36.4Z" transform="translate(2.519 1.668)" fill="#fff"/>
        <path id="Path_205" data-name="Path 205" d="M1034.18,125.3l.909-5.179h-1.51l-1.3.721-.217,1.272,1.225-.711h.072l-.688,3.9Z" transform="translate(2.751 1.668)" fill="#fff"/>
        <path id="Path_206" data-name="Path 206" d="M1037.848,125.3l.909-5.179h-1.51l-1.3.721-.217,1.272,1.225-.711h.072l-.689,3.9Z" transform="translate(2.989 1.668)" fill="#fff"/>
        <path id="Path_207" data-name="Path 207" d="M1043.419,123.176l.087-.477a3.428,3.428,0,0,0,.049-.627,1.839,1.839,0,0,0-1.944-2.027c-1.243,0-2.049.79-2.286,2.215l-.08.458a3.571,3.571,0,0,0-.057.666,1.836,1.836,0,0,0,1.939,2.011C1042.369,125.394,1043.156,124.608,1043.419,123.176Zm-1.389-.721-.11.664c-.122.729-.37,1.089-.753,1.089-.358,0-.525-.253-.51-.793a2.681,2.681,0,0,1,.057-.455l.107-.645c.121-.7.383-1.09.753-1.09s.528.265.513.778A3.028,3.028,0,0,1,1042.031,122.455Z" transform="translate(3.214 1.663)" fill="#fff"/>
        <path id="Path_208" data-name="Path 208" d="M1044.007,122.117l1.225-.711h.072l-.689,3.9h1.514l.909-5.179h-1.51l-1.3.721Z" transform="translate(3.528 1.668)" fill="#fff"/>
        <path id="Path_209" data-name="Path 209" d="M1056.383,123.176l.087-.477a3.42,3.42,0,0,0,.05-.627,1.84,1.84,0,0,0-1.945-2.027c-1.244,0-2.05.79-2.286,2.215l-.08.458a3.579,3.579,0,0,0-.058.666,1.837,1.837,0,0,0,1.939,2.011C1055.334,125.394,1056.12,124.608,1056.383,123.176Zm-1.389-.721-.111.664c-.121.729-.369,1.089-.752,1.089-.359,0-.526-.253-.511-.793a2.964,2.964,0,0,1,.057-.455l.107-.645c.122-.7.384-1.09.754-1.09s.528.265.512.778A3.005,3.005,0,0,1,1054.995,122.455Z" transform="translate(4.058 1.663)" fill="#fff"/>
        <path id="Path_210" data-name="Path 210" d="M1060.114,122.117l1.225-.711h.072l-.688,3.9h1.514l.908-5.179h-1.509l-1.305.721Z" transform="translate(4.575 1.668)" fill="#fff"/>
        <path id="Path_211" data-name="Path 211" d="M1036.481,128.9h-1.51l-.166.091c.453.69.886,1.391,1.291,2.105Z" transform="translate(2.929 2.222)" fill="#fff"/>
        <path id="Path_212" data-name="Path 212" d="M1038.937,134.171c1.24,0,2.028-.787,2.29-2.218l.087-.479a3.4,3.4,0,0,0,.05-.626,1.839,1.839,0,0,0-1.944-2.027c-1.244,0-2.05.79-2.287,2.213l-.08.46a3.557,3.557,0,0,0-.057.663A1.838,1.838,0,0,0,1038.937,134.171Zm-.414-2.435.107-.645c.121-.7.384-1.09.753-1.09s.528.267.513.778a3.174,3.174,0,0,1-.056.452l-.111.664c-.121.729-.369,1.091-.753,1.091-.358,0-.525-.255-.51-.794A2.67,2.67,0,0,1,1038.522,131.736Z" transform="translate(3.072 2.217)" fill="#fff"/>
        <path id="Path_213" data-name="Path 213" d="M1043.937,134.078l.909-5.179h-1.51l-1.3.721-.217,1.271,1.225-.709h.072l-.688,3.9Z" transform="translate(3.385 2.222)" fill="#fff"/>
        <path id="Path_214" data-name="Path 214" d="M1050.082,128.9l-1.3.721-.217,1.271,1.225-.709h.072l-.688,3.9h1.514l.909-5.179Z" transform="translate(3.824 2.222)" fill="#fff"/>
        <path id="Path_215" data-name="Path 215" d="M1067.877,134.171c1.242,0,2.028-.787,2.291-2.218l.087-.479a3.306,3.306,0,0,0,.05-.626,1.839,1.839,0,0,0-1.944-2.027c-1.245,0-2.051.79-2.286,2.213l-.081.46a3.565,3.565,0,0,0-.056.663A1.837,1.837,0,0,0,1067.877,134.171Zm-.413-2.435.106-.645c.121-.7.384-1.09.753-1.09s.528.267.512.778a3.008,3.008,0,0,1-.057.452l-.111.664c-.121.729-.369,1.091-.752,1.091-.359,0-.526-.255-.51-.794A2.794,2.794,0,0,1,1067.464,131.736Z" transform="translate(4.954 2.217)" fill="#fff"/>
        <path id="Path_216" data-name="Path 216" d="M1039.674,139.868c.121-.7.384-1.09.753-1.09s.529.267.513.778a3.157,3.157,0,0,1-.056.452l-.111.664c-.121.729-.368,1.091-.753,1.091-.013,0-.02-.006-.033-.007.078.391.163.779.229,1.173,1.1-.1,1.811-.861,2.055-2.2l.087-.479a3.4,3.4,0,0,0,.05-.625,1.839,1.839,0,0,0-1.944-2.027,2.128,2.128,0,0,0-1.407.482q.315,1.024.57,2.064Z" transform="translate(3.206 2.771)" fill="#fff"/>
        <path id="Path_217" data-name="Path 217" d="M1045.953,137.676h-1.51l-1.3.721-.217,1.271,1.225-.709h.072l-.688,3.9h1.514Z" transform="translate(3.457 2.776)" fill="#fff"/>
        <path id="Path_218" data-name="Path 218" d="M1050.615,140.73l.087-.479a3.4,3.4,0,0,0,.05-.625,1.839,1.839,0,0,0-1.944-2.027c-1.244,0-2.05.789-2.287,2.212l-.08.46a3.576,3.576,0,0,0-.056.663,1.837,1.837,0,0,0,1.94,2.014C1049.565,142.948,1050.353,142.161,1050.615,140.73Zm-2.762.239a2.67,2.67,0,0,1,.057-.456l.107-.645c.121-.7.385-1.09.753-1.09s.528.267.513.778a3.16,3.16,0,0,1-.057.452l-.111.664c-.121.729-.368,1.091-.753,1.091C1048.006,141.763,1047.839,141.508,1047.854,140.969Z" transform="translate(3.683 2.771)" fill="#fff"/>
        <path id="Path_219" data-name="Path 219" d="M1054.235,137.676h-1.51l-1.3.721-.217,1.271,1.225-.709h.072l-.688,3.9h1.514Z" transform="translate(3.996 2.776)" fill="#fff"/>
        <path id="Path_220" data-name="Path 220" d="M1041.513,147.737h.072l-.688,3.9h1.513l.91-5.18h-1.51l-1.214.672c.015.375.02.753.024,1.129Z" transform="translate(3.306 3.33)" fill="#fff"/>
        <path id="Path_221" data-name="Path 221" d="M1048.854,151.725c1.24,0,2.027-.786,2.29-2.217l.087-.479a3.423,3.423,0,0,0,.049-.626,1.839,1.839,0,0,0-1.944-2.027c-1.244,0-2.05.79-2.286,2.212l-.08.46a3.577,3.577,0,0,0-.057.664A1.838,1.838,0,0,0,1048.854,151.725Zm-.415-2.434.107-.646c.122-.7.384-1.09.753-1.09s.529.267.514.779a3.051,3.051,0,0,1-.057.451l-.111.666c-.121.728-.369,1.09-.753,1.09-.357,0-.524-.255-.509-.794A2.732,2.732,0,0,1,1048.439,149.291Z" transform="translate(3.717 3.325)" fill="#fff"/>
        <path id="Path_222" data-name="Path 222" d="M1060.074,151.632l.91-5.179h-1.511l-1.3.721-.217,1.271,1.225-.709h.073l-.689,3.9Z" transform="translate(4.435 3.33)" fill="#fff"/>
        <path id="Path_223" data-name="Path 223" d="M1068.519,146.375a2.273,2.273,0,0,0-2.286,2.212l-.081.46a3.56,3.56,0,0,0-.057.664,1.837,1.837,0,0,0,1.939,2.013c1.241,0,2.028-.786,2.291-2.217l.086-.479a3.321,3.321,0,0,0,.05-.626A1.839,1.839,0,0,0,1068.519,146.375Zm.419,2.41-.112.666c-.121.728-.368,1.09-.752,1.09-.358,0-.526-.255-.51-.794a2.789,2.789,0,0,1,.057-.455l.107-.646c.121-.7.383-1.09.753-1.09s.528.267.513.779A3.184,3.184,0,0,1,1068.938,148.785Z" transform="translate(4.964 3.325)" fill="#fff"/>
        <path id="Path_224" data-name="Path 224" d="M1045.071,157.806a3.42,3.42,0,0,0,.05-.627,1.839,1.839,0,0,0-1.944-2.027c-1.244,0-2.05.79-2.287,2.215l-.08.458a3.667,3.667,0,0,0-.057.666,1.836,1.836,0,0,0,1.939,2.011c1.24,0,2.028-.786,2.29-2.218Zm-1.475-.243-.111.664c-.121.729-.368,1.089-.753,1.089-.358,0-.525-.253-.51-.793a2.681,2.681,0,0,1,.057-.455l.107-.645c.121-.7.384-1.09.753-1.09s.528.265.513.778A3.139,3.139,0,0,1,1043.6,157.562Z" transform="translate(3.316 3.88)" fill="#fff"/>
        <path id="Path_225" data-name="Path 225" d="M1046.869,156.513l-.688,3.9h1.514l.909-5.179h-1.51l-1.3.721-.217,1.272,1.225-.711Z" transform="translate(3.63 3.885)" fill="#fff"/>
        <path id="Path_226" data-name="Path 226" d="M1053.265,158.283l.087-.477a3.42,3.42,0,0,0,.05-.627,1.839,1.839,0,0,0-1.944-2.027c-1.244,0-2.05.79-2.287,2.215l-.08.458a3.581,3.581,0,0,0-.057.666,1.836,1.836,0,0,0,1.94,2.011C1052.215,160.5,1053,159.715,1053.265,158.283Zm-2.762.239a2.681,2.681,0,0,1,.057-.455l.107-.645c.121-.7.383-1.09.753-1.09s.528.265.513.778a3,3,0,0,1-.057.452l-.11.664c-.121.729-.37,1.089-.753,1.089C1050.656,159.315,1050.489,159.062,1050.5,158.522Z" transform="translate(3.855 3.88)" fill="#fff"/>
        <path id="Path_227" data-name="Path 227" d="M1044.037,167.06l.087-.477a3.439,3.439,0,0,0,.049-.627,1.839,1.839,0,0,0-1.944-2.027c-1.244,0-2.05.79-2.286,2.215l-.08.459a3.587,3.587,0,0,0-.057.664,1.837,1.837,0,0,0,1.94,2.012C1042.987,169.278,1043.774,168.492,1044.037,167.06Zm-1.389-.72-.11.663c-.123.729-.369,1.09-.754,1.09-.357,0-.524-.254-.509-.793a2.743,2.743,0,0,1,.057-.456l.106-.645c.122-.7.384-1.09.754-1.09s.528.265.513.778A3.027,3.027,0,0,1,1042.648,166.34Z" transform="translate(3.254 4.434)" fill="#fff"/>
        <path id="Path_228" data-name="Path 228" d="M1048.03,169.278c1.24,0,2.027-.786,2.29-2.218l.087-.477a3.415,3.415,0,0,0,.049-.627,1.839,1.839,0,0,0-1.944-2.027c-1.244,0-2.05.79-2.286,2.215l-.08.459a3.578,3.578,0,0,0-.057.664A1.837,1.837,0,0,0,1048.03,169.278Zm-.415-2.434.106-.645c.123-.7.385-1.09.754-1.09s.528.265.513.778a3.041,3.041,0,0,1-.057.453l-.11.663c-.123.729-.37,1.09-.754,1.09-.357,0-.524-.254-.509-.793A2.743,2.743,0,0,1,1047.614,166.844Z" transform="translate(3.663 4.434)" fill="#fff"/>
        <path id="Path_229" data-name="Path 229" d="M1043.944,177.962l.909-5.179h-1.51l-1.3.721-.217,1.271,1.225-.709h.072l-.688,3.9Z" transform="translate(3.386 4.993)" fill="#fff"/>
      </g>
    </g>
  </g>
</svg>
